:SAMPLES-PER-SECOND 30
:FULLY-SPECIFIED
:DEGREES
334
root  55.6727 38.1717 -4.01688 -108.791 -82.7815 106.163
RightUpLeg  -17.47 6.73019 -12.5734
RightLeg  60.5125 3.75435 6.69553
RightFoot  -1.45861 -0.763346 8.75813
RightToes  -1.33073e-015 0 -3.6325e-017
Spine  7.22519 1.44085 -3.18464
Spine1  3.91087 2.47806 -8.36568
HEad  -0.571951 -17.0876 1.39461
LeftShoulder1  -0.74364 5.36727 -33.6937
LeftArm  7.98805 8.26391 -39.2641
LeftForeArm  18.443 -21.7108 -4.27129
LeftHand  -0.00550314 6.74727 2.32398
RightShoulder  -1.10451 -6.42256 31.2956
RightArm  29.8483 -5.9166 46.0696
RightForeArm  7.35762 17.0107 6.59738
RightHand  -0.232795 4.67457 -2.98067
LeftUpLeg  -7.77999 4.29844 -9.633
LeftLeg  20.4574 2.50526 0.4216
LeftFoot  -11.6463 0.0818167 4.60242
LeftToes  -1.63346e-009 7.54925e-011 9.86887e-012
335
root  54.6103 38.3022 -3.75359 -110.539 -83.5155 107.763
RightUpLeg  -20.1347 5.63541 -10.9801
RightLeg  55.9821 3.28519 4.84312
RightFoot  -3.75217 -0.708357 10.2248
RightToes  -1.33073e-015 0 -3.6325e-017
Spine  6.08049 1.21854 -3.5365
Spine1  5.72676 2.1845 -7.11653
HEad  -1.81417 -16.5786 1.88818
LeftShoulder1  -0.531539 4.86702 -32.8883
LeftArm  6.19559 6.31682 -40.4072
LeftForeArm  18.5066 -23.1079 -4.06254
LeftHand  -0.0155048 6.03071 2.37187
RightShoulder  -1.04773 -6.28216 31.1498
RightArm  30.6237 -6.65682 45.648
RightForeArm  7.33975 17.3231 6.48614
RightHand  -0.223907 4.06517 -3.02234
LeftUpLeg  -5.04176 4.21779 -9.06267
LeftLeg  18.99 2.67998 0.162596
LeftFoot  -12.7642 0.133572 4.55613
LeftToes  -1.63346e-009 7.54925e-011 9.86887e-012
336
root  53.5501 38.3404 -3.50857 -109.463 -84.1104 106.58
RightUpLeg  -22.1771 4.22097 -9.34269
RightLeg  49.0831 2.4434 2.69432
RightFoot  -4.82415 -0.584847 9.66822
RightToes  -1.33073e-015 0 -3.6325e-017
Spine  6.53726 0.690059 -3.95093
Spine1  5.37282 1.48101 -6.12682
HEad  -2.42563 -15.722 2.3031
LeftShoulder1  -0.642546 5.16692 -32.4744
LeftArm  5.04073 4.55076 -40.9378
LeftForeArm  18.8827 -24.4664 -4.22924
LeftHand  0.00715661 6.98703 3.03398
RightShoulder  -0.972475 -6.10982 30.7366
RightArm  30.8209 -7.57819 45.4021
RightForeArm  8.41864 17.0899 6.58947
RightHand  -0.166246 4.37141 -2.2522
LeftUpLeg  -2.51632 4.38691 -8.72026
LeftLeg  17.8211 2.19813 -0.190431
LeftFoot  -13.9537 0.193074 4.78496
LeftToes  -1.63346e-009 7.54925e-011 9.86887e-012
337
root  52.4621 38.3875 -3.2477 -106.746 -84.6944 103.648
RightUpLeg  -22.8208 2.28123 -7.61886
RightLeg  39.3575 1.72514 1.24893
RightFoot  -5.0214 -0.512064 8.64445
RightToes  -1.33073e-015 0 -3.6325e-017
Spine  6.76974 0.186281 -4.18755
Spine1  5.56105 0.842132 -4.91418
HEad  -2.87554 -14.6728 2.68452
LeftShoulder1  -0.595854 5.055 -32.2654
LeftArm  4.09243 2.7259 -40.9838
LeftForeArm  19.5421 -25.4514 -4.41753
LeftHand  -0.012514 6.13128 2.70679
RightShoulder  -0.91126 -5.96572 30.4222
RightArm  29.1077 -7.94755 45.467
RightForeArm  10.9175 15.7387 7.11581
RightHand  -0.0840761 4.01325 -1.30749
LeftUpLeg  0.390719 4.55073 -8.49913
LeftLeg  16.2208 1.81303 -0.40514
LeftFoot  -14.7562 0.241523 5.12323
LeftToes  -1.63346e-009 7.54925e-011 9.86887e-012
338
root  51.3397 38.3467 -3.02156 -106.598 -84.9029 103.402
RightUpLeg  -22.777 0.866487 -6.04204
RightLeg  28.1259 1.02904 0.402095
RightFoot  -5.20617 -0.528154 9.17363
RightToes  -1.33073e-015 0 -3.6325e-017
Spine  7.10903 0.0482761 -4.52478
Spine1  5.36845 0.584349 -3.8683
HEad  -3.08736 -13.7809 2.81936
LeftShoulder1  -0.537307 4.90935 -32.0834
LeftArm  4.01086 0.964713 -40.9928
LeftForeArm  19.9315 -25.9667 -4.50965
LeftHand  -0.0187666 5.68576 2.73954
RightShoulder  -0.957981 -6.07879 30.6236
RightArm  27.3175 -8.38481 44.9077
RightForeArm  13.0395 14.7059 7.39552
RightHand  -0.0660782 3.82059 -1.08775
LeftUpLeg  3.10325 4.83531 -8.45738
LeftLeg  14.8265 1.64397 -0.643186
LeftFoot  -15.6942 0.302738 5.47572
LeftToes  -1.63346e-009 7.54925e-011 9.86887e-012
339
root  50.178 38.2389 -2.78939 -106.66 -84.6956 103.423
RightUpLeg  -22.2119 -0.93076 -4.51882
RightLeg  16.3356 1.19304 0.0587648
RightFoot  -5.47363 -0.522594 9.44212
RightToes  -1.33073e-015 0 -3.6325e-017
Spine  7.5467 -0.047584 -4.54621
Spine1  5.08025 0.541576 -3.67535
HEad  -3.34356 -13.9373 3.21262
LeftShoulder1  -0.485391 4.79467 -31.4488
LeftArm  4.52658 -0.255043 -41.2044
LeftForeArm  19.7026 -26.6507 -4.67212
LeftHand  0.00969459 6.61805 3.90204
RightShoulder  -1.02047 -6.21478 31.069
RightArm  24.1093 -8.87112 44.4547
RightForeArm  14.4298 13.2196 7.67275
RightHand  -0.133747 4.03797 -1.91841
LeftUpLeg  5.77702 4.91641 -8.88573
LeftLeg  13.5005 1.72831 -0.810382
LeftFoot  -16.6968 0.37918 5.95304
LeftToes  -1.63346e-009 7.54925e-011 9.86887e-012
340
root  48.9714 38.0923 -2.55965 -99.7163 -84.611 96.5558
RightUpLeg  -21.6591 -4.14778 -2.87538
RightLeg  5.99795 3.74148 0.275646
RightFoot  -5.76864 -0.528447 10.0474
RightToes  -1.33073e-015 0 -3.6325e-017
Spine  7.61857 -0.341278 -4.34864
Spine1  5.11661 0.263791 -3.4222
HEad  -3.34356 -13.7401 3.34575
LeftShoulder1  -0.406938 4.59757 -31.079
LeftArm  5.11186 -1.35464 -41.4108
LeftForeArm  19.7817 -26.6314 -4.66375
LeftHand  -0.00121025 6.50244 3.07737
RightShoulder  -1.07693 -6.3349 31.4797
RightArm  21.1134 -9.22593 43.9815
RightForeArm  15.7893 11.6303 7.81656
RightHand  -0.127452 3.67869 -1.89028
LeftUpLeg  8.36857 4.9075 -9.34463
LeftLeg  12.2325 1.31196 -0.94456
LeftFoot  -17.6468 0.462234 6.45925
LeftToes  -1.63346e-009 7.54925e-011 9.86887e-012
